<svg xmlns="http://www.w3.org/2000/svg" viewBox="0 0 411 411"><defs><style>.a{fill:#f9faff;}</style></defs><title>signup_bg_icon</title><path class="a" d="M205.5,411C92.24,411,0,318.76,0,205.5S92.24,0,205.5,0,411,92.24,411,205.5,318.76,411,205.5,411Zm0-382C108.19,29,29,108.19,29,205.5S108.19,382,205.5,382,382,302.81,382,205.5,302.81,29,205.5,29Zm-1,171A57.5,57.5,0,1,1,262,142.5,57.39,57.39,0,0,1,204.5,200Zm1-86A29.5,29.5,0,1,0,235,143.5,29.31,29.31,0,0,0,205.5,114ZM321.16,372h-1a14.41,14.41,0,0,1-13.4-15.31c0-2.87.48-5.74.48-8.13a101.28,101.28,0,0,0-202.5-4.31v4.31a52.11,52.11,0,0,0,.48,8.13,14.39,14.39,0,0,1-28.72,1.91,77.59,77.59,0,0,1-.48-10C74.13,276.78,131.1,217.46,203.39,216A130,130,0,0,1,336,343.75v4.78a74,74,0,0,1-.48,10A14.22,14.22,0,0,1,321.16,372Z" transform="translate(0 0)"/></svg>